<?xml version="1.0" encoding="utf-8"?>
<!-- Generator: Adobe Illustrator 16.0.0, SVG Export Plug-In . SVG Version: 6.00 Build 0)  -->
<!DOCTYPE svg PUBLIC "-//W3C//DTD SVG 1.1//EN" "http://www.w3.org/Graphics/SVG/1.1/DTD/svg11.dtd">
<svg version="1.1" xmlns="http://www.w3.org/2000/svg" xmlns:xlink="http://www.w3.org/1999/xlink" x="0px" y="0px" viewBox="0 0 512 512" enable-background="new 0 0 512 512" xml:space="preserve">
<g id="Ebene_1">
	<g display="none">
		<defs>
			<rect id="SVGID_1_" width="512" height="512"/>
		</defs>
		<clipPath id="SVGID_2_" display="inline">
			<use xlink:href="#SVGID_1_"  overflow="visible"/>
		</clipPath>
		<path display="inline" clip-path="url(#SVGID_2_)" fill="#F59925" d="M256,197.909c-32.083,0-58.091,26.008-58.091,58.091
			s26.008,58.092,58.091,58.092s58.092-26.009,58.092-58.092C314.052,223.933,288.066,197.948,256,197.909z"/>
	</g>
	<g display="none">
		<defs>
			<rect id="SVGID_3_" width="512" height="512"/>
		</defs>
		<clipPath id="SVGID_4_" display="inline">
			<use xlink:href="#SVGID_3_"  overflow="visible"/>
		</clipPath>
		<path display="inline" clip-path="url(#SVGID_4_)" fill="#F59925" d="M353.557,180.675c-12.104,0-21.918-9.81-21.924-21.914
			c-0.006-12.104,9.799-21.922,21.903-21.934c12.104-0.012,21.927,9.789,21.944,21.893c0.011,5.821-2.294,11.408-6.407,15.529
			c-4.112,4.12-9.695,6.436-15.517,6.436V180.675z M256,344.781c-49.032,0-88.781-39.749-88.781-88.781s39.749-88.781,88.781-88.781
			s88.781,39.749,88.781,88.781C344.725,305.009,305.009,344.725,256,344.781z M324.342,108.022H187.658
			c-43.961,0.051-79.585,35.675-79.636,79.636v136.684c0.051,43.961,35.675,79.586,79.636,79.637h136.684
			c43.961-0.051,79.586-35.676,79.637-79.637V187.658C403.928,143.697,368.303,108.073,324.342,108.022z"/>
	</g>
	<g>
		<defs>
			<rect id="SVGID_5_" width="512" height="512"/>
		</defs>
		<clipPath id="SVGID_6_">
			<use xlink:href="#SVGID_5_"  overflow="visible"/>
		</clipPath>
		<path clip-path="url(#SVGID_6_)" fill="#F59925" d="M434.657,324.342c-0.073,60.896-49.419,110.247-110.315,110.326H187.658
			c-60.901-0.074-110.252-49.426-110.326-110.326V187.658c0.073-60.901,49.425-110.252,110.326-110.326h136.684
			c60.9,0.073,110.252,49.425,110.326,110.326L434.657,324.342z M496.486,127.734c-0.028-8.686-0.823-17.352-2.376-25.897
			c-1.986-10.435-4.781-20.603-9.778-30.034c-5.205-9.937-11.979-18.968-20.061-26.747c-12.208-11.951-27.287-20.555-43.786-24.986
			c-15.187-4.096-30.72-4.956-46.295-4.936c-0.052-0.069-0.084-0.15-0.093-0.235H137.82c0,0.082,0,0.164,0,0.235
			c-8.858,0.164-17.736,0.092-26.542,1.188c-9.657,1.021-19.165,3.151-28.334,6.349c-14.261,5.26-27.132,13.708-37.632,24.699
			c-12.036,12.231-20.703,27.369-25.16,43.94c-4.035,15.073-4.915,30.443-4.936,45.926l-0.164,237.23
			c0.287,10.7,0.379,21.504,2.181,32.112c1.915,11.264,4.649,22.231,9.872,32.45c6.946,13.694,16.843,25.676,28.979,35.083
			c8.663,6.904,18.477,12.226,28.989,15.718c15.483,4.997,31.458,6.912,47.667,7.005c10.117,0.062,20.214,0.317,30.331,0.276
			c73.462-0.308,146.934,0.532,220.396-0.451c9.704-0.213,19.374-1.24,28.907-3.071c18.028-3.176,34.805-11.343,48.425-23.573
			c16.159-14.418,27.064-32.051,31.99-53.34c3.226-13.916,4.024-28.037,4.167-42.199v-2.826
			C496.947,370.545,496.527,130.908,496.486,127.734z"/>
	</g>
</g>
<g id="Ebene_2">
	<path fill="#F59925" d="M210.546,272.807l-86.081,83.358h261.894l-85.4-82.7l-36.525,36.453c-2.215,2.214-5.264,3.461-8.445,3.457
		c-3.184-0.003-6.229-1.258-8.439-3.476L210.546,272.807z M401.915,172.734l-84.594,84.407l84.594,81.917V172.734z M110.085,172.121
		v165.8l84.135-81.475L110.085,172.121z M127.503,156.835l128.514,128.813L385.11,156.835H127.503z M108.589,124.985h294.82
		c17.111,0,31.396,13.842,31.396,30.411v202.217c0,16.569-14.285,30.4-31.396,30.4h-294.82c-17.111,0-31.396-13.831-31.396-30.4
		V155.396C77.194,138.827,91.479,124.985,108.589,124.985z M115.04,29c-52.061,0-93.973,40.586-93.973,91v273
		c0,50.414,41.912,91,93.973,91h281.92c52.061,0,93.973-40.586,93.973-91V120c0-50.414-41.912-91-93.973-91H115.04z"/>
</g>
</svg>
