<?xml version="1.0" encoding="utf-8"?>
<!-- Generator: Adobe Illustrator 16.0.0, SVG Export Plug-In . SVG Version: 6.00 Build 0)  -->
<!DOCTYPE svg PUBLIC "-//W3C//DTD SVG 1.1//EN" "http://www.w3.org/Graphics/SVG/1.1/DTD/svg11.dtd">
<svg version="1.1" id="Ebene_1" xmlns="http://www.w3.org/2000/svg" xmlns:xlink="http://www.w3.org/1999/xlink" x="0px" y="0px"
	 viewBox="0 0 512 512" enable-background="new 0 0 512 512" xml:space="preserve">
<g>
	<defs>
		<rect id="SVGID_1_" width="512" height="512"/>
	</defs>
	<clipPath id="SVGID_2_">
		<use xlink:href="#SVGID_1_"  overflow="visible"/>
	</clipPath>
	<path clip-path="url(#SVGID_2_)" fill="#F59925" d="M496.486,127.744c-0.028-8.686-0.823-17.352-2.376-25.897
		c-1.986-10.435-4.781-20.603-9.778-30.034c-5.204-9.94-11.979-18.975-20.061-26.757c-12.208-11.951-27.287-20.555-43.786-24.986
		c-15.187-4.096-30.72-4.956-46.295-4.936c-0.052-0.069-0.084-0.15-0.093-0.235H137.82c0,0.082,0,0.164,0,0.235
		c-8.858,0.164-17.736,0.092-26.542,1.188c-9.658,1.024-19.165,3.158-28.334,6.359C68.683,27.942,55.812,36.39,45.312,47.38
		c-12.036,12.231-20.703,27.369-25.16,43.94c-4.035,15.073-4.915,30.443-4.936,45.926l-0.164,237.23
		c0.287,10.701,0.379,21.504,2.181,32.113c1.915,11.264,4.649,22.23,9.872,32.45c6.947,13.689,16.844,25.668,28.979,35.072
		c8.663,6.904,18.477,12.226,28.989,15.718c15.483,4.997,31.458,6.912,47.667,7.005c10.117,0.062,20.214,0.317,30.331,0.276
		c36.301-0.154,72.592,0,108.892,0V336.098h-54.149V271.36h54.16v-46.388c0,0-3.912-77.056,72.028-83.2h57.508v58.624h-41.882
		c0,0-17.858,3.379-20.685,20.111v49.695h59.75l-6.697,61.982h-54.139V497.05c22.805-0.113,45.619-0.39,45.619-0.39
		c9.705-0.213,19.375-1.24,28.908-3.071c18.023-3.178,34.797-11.345,48.414-23.573c16.159-14.418,27.064-32.051,31.99-53.34
		c3.226-13.916,4.024-28.037,4.167-42.199v-2.826C496.947,370.555,496.527,130.908,496.486,127.744z"/>
</g>
</svg>
