<?xml version="1.0" encoding="utf-8"?>
<!-- Generator: Adobe Illustrator 16.0.0, SVG Export Plug-In . SVG Version: 6.00 Build 0)  -->
<!DOCTYPE svg PUBLIC "-//W3C//DTD SVG 1.1//EN" "http://www.w3.org/Graphics/SVG/1.1/DTD/svg11.dtd">
<svg version="1.1" id="Ebene_1" xmlns="http://www.w3.org/2000/svg" xmlns:xlink="http://www.w3.org/1999/xlink" x="0px" y="0px"
	 width="512px" height="512px" viewBox="0 0 512 512" enable-background="new 0 0 512 512" xml:space="preserve">
<g>
	<defs>
		<rect id="SVGID_1_" width="512" height="512"/>
	</defs>
	<clipPath id="SVGID_2_">
		<use xlink:href="#SVGID_1_"  overflow="visible"/>
	</clipPath>
	<path clip-path="url(#SVGID_2_)" fill="#F59925" d="M404.326,180.521c0,0,5.561,81.602-36.628,129.362
		c0,0-29.235,61.614-99.707,82.013c0,0-9.718,13.035-113.111,10.721c0,0-31.529,0.461-81.142-29.696c0,0,67.236,7.885,110.356-32.46
		c0,0-47.298-0.461-69.089-50.074c0,0,23.184,1.854,33.382-2.314c0,0-59.392-15.298-58.89-75.581c0,0,21.33,11.131,32.461,8.346
		c0,0-54.272-38.912-24.115-99.687c0,0,71.864,80.681,155.792,76.042c0,0-12.984-55.644,50.073-84.388
		c0,0,55.173-15.77,78.356,17.623c0,0,35.707-3.246,47.299-16.691c0,0,4.178,11.131-29.696,40.335c0,0,23.184-1.393,38.482-10.24
		c0.123,0.062-0.39,14.438-33.771,36.69H404.326z M496.486,127.734c-0.028-8.686-0.823-17.352-2.376-25.897
		c-1.986-10.435-4.781-20.603-9.778-30.034c-5.205-9.937-11.979-18.968-20.061-26.747c-12.208-11.951-27.287-20.555-43.786-24.986
		c-15.187-4.096-30.72-4.956-46.295-4.936c-0.052-0.069-0.084-0.15-0.093-0.235H137.82c0,0.082,0,0.164,0,0.235
		c-8.858,0.164-17.736,0.092-26.542,1.188c-9.657,1.021-19.165,3.151-28.334,6.349c-14.261,5.26-27.132,13.708-37.632,24.699
		c-12.036,12.231-20.703,27.369-25.16,43.94c-4.035,15.073-4.915,30.443-4.936,45.926l-0.164,237.23
		c0.287,10.7,0.379,21.504,2.181,32.112c1.915,11.264,4.649,22.231,9.872,32.45c6.946,13.694,16.843,25.676,28.979,35.083
		c8.663,6.904,18.477,12.226,28.989,15.718c15.483,4.997,31.458,6.912,47.667,7.005c10.117,0.062,20.214,0.317,30.331,0.276
		c73.462-0.308,146.934,0.532,220.396-0.451c9.704-0.213,19.374-1.24,28.907-3.071c18.028-3.176,34.805-11.343,48.425-23.573
		c16.159-14.418,27.064-32.051,31.99-53.34c3.226-13.916,4.024-28.037,4.167-42.199v-2.826
		C496.947,370.545,496.527,130.908,496.486,127.734z"/>
</g>
</svg>
